<svg xmlns="http://www.w3.org/2000/svg" width="300" height="300" viewBox="0 0 300 300">
  <g fill="#000">
    <circle cx="50" cy="50" r="8"/><circle cx="42" cy="42" r="5"/><circle cx="58" cy="42" r="5"/><circle cx="42" cy="58" r="5"/><circle cx="58" cy="58" r="5"/>
    <circle cx="180" cy="70" r="7"/><circle cx="173" cy="63" r="4"/><circle cx="187" cy="63" r="4"/><circle cx="173" cy="77" r="4"/><circle cx="187" cy="77" r="4"/>
    <circle cx="260" cy="140" r="9"/><circle cx="251" cy="131" r="5"/><circle cx="269" cy="131" r="5"/><circle cx="251" cy="149" r="5"/><circle cx="269" cy="149" r="5"/>
    <circle cx="80" cy="180" r="8"/><circle cx="72" cy="172" r="5"/><circle cx="88" cy="172" r="5"/><circle cx="72" cy="188" r="5"/><circle cx="88" cy="188" r="5"/>
    <circle cx="200" cy="220" r="8"/><circle cx="192" cy="212" r="5"/><circle cx="208" cy="212" r="5"/><circle cx="192" cy="228" r="5"/><circle cx="208" cy="228" r="5"/>
    <circle cx="40" cy="260" r="6"/><circle cx="34" cy="254" r="4"/><circle cx="46" cy="254" r="4"/><circle cx="34" cy="266" r="4"/><circle cx="46" cy="266" r="4"/>
  </g>
</svg>
