<svg xmlns="http://www.w3.org/2000/svg" width="300" height="300" viewBox="0 0 300 300">
  <g fill="none" stroke="#000" stroke-width="1.3">
    <path d="M45 55l-8-12 8-4 8 4-8 12zM37 63c6 8 14 8 20 0"/>
    <circle cx="47" cy="58" r="1.5" fill="#000" stroke="none"/>
    <ellipse cx="140" cy="70" rx="16" ry="14"/>
    <path d="M124 58l-6-10 6-2 6 2-6 10M140 58l-6-10 6-2 6 2-6 10M156 58l-6-10 6-2 6 2-6 10"/>
    <circle cx="264" cy="48" r="14"/>
    <ellipse cx="70" cy="190" rx="12" ry="10"/>
    <circle cx="66" cy="188" r="1.2" fill="#000" stroke="none"/>
    <circle cx="74" cy="188" r="1.2" fill="#000" stroke="none"/>
    <path d="M200 175c8-6 16-6 24 0 4 12-4 22-12 22s-16-10-12-22z"/>
    <circle cx="55" cy="265" r="6"/>
    <circle cx="52" cy="263" r="1" fill="#000" stroke="none"/>
    <circle cx="58" cy="263" r="1" fill="#000" stroke="none"/>
    <path d="M230 250l10 8 4-12-14 4zM238 258l6 6"/>
  </g>
</svg>
