<svg xmlns="http://www.w3.org/2000/svg" width="280" height="280" viewBox="0 0 280 280">
  <g fill="none" stroke="#000" stroke-width="1.3" opacity="0.9">
    <path d="M50 70h40v8H50zM46 78c0 8 6 14 14 14h16c8 0 14-6 14-14v-24H50v24z"/>
    <path d="M160 50h36v8h-36zM156 58c0 8 6 14 14 14h14c8 0 14-6 14-14V40h-42v18z"/>
    <path d="M70 180h40v8H70zM66 188c0 8 6 14 14 14h16c8 0 14-6 14-14v-24H70v24z"/>
    <path d="M190 170h36v8h-36zM186 178c0 8 6 14 14 14h14c8 0 14-6 14-14v-22h-42v22z"/>
    <path d="M40 230h20v6H40zM220 240h24v6h-24z"/>
  </g>
</svg>
