<svg xmlns="http://www.w3.org/2000/svg" width="280" height="280" viewBox="0 0 280 280">
  <g fill="#000" opacity="0.85">
    <path d="M50 50c0-8 6-14 14-14 4 0 8 2 10 5 2-3 6-5 10-5 8 0 14 6 14 14 0 10-12 18-24 28-12-10-24-18-24-28z"/>
    <path d="M180 40c0-6 5-11 11-11 3 0 6 1 8 4 2-3 5-4 8-4 6 0 11 5 11 11 0 8-10 14-19 22-9-8-19-14-19-22z"/>
    <path d="M240 150c0-7 6-13 13-13 4 0 7 2 9 5 2-3 5-5 9-5 7 0 13 6 13 13 0 9-11 16-22 25-11-9-22-16-22-25z"/>
    <path d="M60 170c0-6 5-11 11-11 3 0 6 1 8 4 2-3 5-4 8-4 6 0 11 5 11 11 0 8-10 14-19 22-9-8-19-14-19-22z"/>
    <path d="M150 210c0-8 6-14 14-14 4 0 8 2 10 5 2-3 6-5 10-5 8 0 14 6 14 14 0 10-12 18-24 28-12-10-24-18-24-28z"/>
  </g>
</svg>
