<svg xmlns="http://www.w3.org/2000/svg" width="240" height="240" viewBox="0 0 240 240">
  <g fill="none" stroke="#000" stroke-width="1.2" opacity="0.9">
    <polygon points="60,30 80,30 90,50 80,70 60,70 50,50"/>
    <polygon points="160,40 180,40 190,60 180,80 160,80 150,60"/>
    <polygon points="40,130 60,130 70,150 60,170 40,170 30,150"/>
    <polygon points="130,120 150,120 160,140 150,160 130,160 120,140"/>
    <polygon points="200,150 220,150 230,170 220,190 200,190 190,170"/>
    <polygon points="80,200 100,200 110,220 100,240 80,240 70,220"/>
  </g>
</svg>
