<svg xmlns="http://www.w3.org/2000/svg" width="280" height="280" viewBox="0 0 280 280">
  <g fill="none" stroke="#000" stroke-width="1.3" opacity="0.9">
    <path d="M40 60c10-20 30-20 40 0-10 20-30 20-40 0z"/>
    <path d="M160 40c8-16 24-16 32 0-8 16-24 16-32 0z"/>
    <path d="M240 100c10-20 30-20 40 0-10 20-30 20-40 0z"/>
    <path d="M70 160c10-20 30-20 40 0-10 20-30 20-40 0z"/>
    <path d="M190 180c8-16 24-16 32 0-8 16-24 16-32 0z"/>
    <path d="M30 230c10-20 30-20 40 0-10 20-30 20-40 0z"/>
  </g>
</svg>
