<svg xmlns="http://www.w3.org/2000/svg" width="260" height="260" viewBox="0 0 260 260">
  <g fill="#000">
    <path d="M40 36l4 12 12 4-12 4-4 12-4-12-12-4 12-4z"/>
    <path d="M150 28l3 9 9 3-9 3-3 9-3-9-9-3 9-3z"/>
    <path d="M230 60l5 15 15 5-15 5-5 15-5-15-15-5 15-5z"/>
    <path d="M70 140l3 9 9 3-9 3-3 9-3-9-9-3 9-3z"/>
    <path d="M190 130l4 12 12 4-12 4-4 12-4-12-12-4 12-4z"/>
    <path d="M40 220l3 9 9 3-9 3-3 9-3-9-9-3 9-3z"/>
    <path d="M120 210l2 6 6 2-6 2-2 6-2-6-6-2 6-2z"/>
  </g>
</svg>
